<svg fill="none" height="24" viewBox="0 0 24 24" width="24" xmlns="http://www.w3.org/2000/svg"><path clip-rule="evenodd" d="m12 22c5.5228 0 10-4.4772 10-10 0-5.52285-4.4772-10-10-10-5.52285 0-10 4.47715-10 10 0 5.5228 4.47715 10 10 10zm-4.46634-14.91603-.00206.00077c-.27158.10135-.48611.31568-.5875.58725-.00871.02335-.01724.04676-.02556.07021-.26787.75447-.339 1.57397-.21259 2.3636.00647.0404.01347.0808.02098.1211-.02888.0463-.05694.0932-.08415.1406-.43152.7512-.65296 1.6272-.64242 2.5141.00112 1.9013.50047 3.2573 1.41415 4.1631.89495.8872 2.037 1.1887 2.98589 1.3177l.0304.004c1.0572.1573 2.0782.1483 3.1321-.0281l.0014-.0002c.9527-.1156 2.1044-.4024 3.0083-1.285.9235-.9017 1.4259-2.2614 1.427-4.1716.0106-.8868-.2109-1.7628-.6424-2.514-.0272-.0475-.0554-.0944-.0843-.1409.0075-.0402.0144-.0805.0209-.1208.1264-.79324.0527-1.61656-.2203-2.37302-.0077-.02148-.0157-.04297-.0238-.06445-.1017-.26911-.3143-.48141-.5836-.58264l-.0012-.00045-.0012-.00045-.0024-.0009-.0049-.0018-.0102-.00364-.0214-.0073c-.0148-.00488-.0306-.00975-.0474-.01451-.0336-.00955-.0712-.01865-.1126-.02665-.4795-.09262-1.2755-.0065-2.4242.77508-.0265.01804-.0532.03646-.0801.05526-.0653-.01593-.1307-.03095-.1962-.04509-1.0454-.2255-2.1192-.22293-3.1639.00771-.0538.01186-.1074.02433-.161.03739-.0269-.0188-.0536-.03722-.0802-.05527-1.15335-.7843-1.95254-.86751-2.43053-.7747-.0406.00788-.07739.01681-.11037.02614-.01648.00466-.03197.00941-.04648.01417l-.02101.00712-.00994.00354-.00483.00176z" fill="#323232" fill-rule="evenodd"/></svg>